<svg width="50" height="50" viewBox="0 0 50 50" fill="none" xmlns="http://www.w3.org/2000/svg">
<rect width="50" height="50" rx="5" fill="#0BE6C1"/>
<g filter="url(#filter0_i_35_37)">
<path fill-rule="evenodd" clip-rule="evenodd" d="M10.2819 31.4667C10.3239 30.94 10.3401 30.391 10.3572 29.8065C10.4014 28.3052 10.4524 26.5692 10.9668 24.373C11.8073 20.785 15.7541 19.3693 18.7817 19.0414C18.0006 18.3125 17.0529 17.7372 15.9716 17.3811C11.9787 16.066 7.67584 18.2368 6.36081 22.2297C5.15158 25.9013 6.88982 29.835 10.2819 31.4667Z" fill="white"/>
</g>
<path d="M15.289 32.6112C14.6683 32.6112 14.1713 32.4946 13.798 32.2612C13.4247 32.0232 13.238 31.6616 13.238 31.1762C13.238 30.9196 13.2823 30.7236 13.371 30.5882C13.4597 30.4529 13.5903 30.3852 13.763 30.3852C13.889 30.3852 13.9917 30.4179 14.071 30.4832C14.1503 30.5486 14.19 30.6326 14.19 30.7352C14.19 30.8286 14.183 30.9102 14.169 30.9802C14.169 30.9989 14.1643 31.0316 14.155 31.0782C14.1503 31.1249 14.148 31.1739 14.148 31.2252C14.148 31.4352 14.253 31.5916 14.463 31.6942C14.6777 31.7969 14.9763 31.8482 15.359 31.8482C15.7557 31.8482 16.066 31.7782 16.29 31.6382C16.514 31.4936 16.626 31.2929 16.626 31.0362C16.626 30.8776 16.5747 30.7422 16.472 30.6302C16.3693 30.5136 16.241 30.4179 16.087 30.3432C15.933 30.2639 15.716 30.1682 15.436 30.0562C15.0767 29.9162 14.7827 29.7832 14.554 29.6572C14.33 29.5312 14.1363 29.3609 13.973 29.1462C13.8143 28.9269 13.735 28.6562 13.735 28.3342C13.735 27.9982 13.8237 27.6996 14.001 27.4382C14.183 27.1769 14.442 26.9739 14.778 26.8292C15.1187 26.6846 15.5177 26.6122 15.975 26.6122C16.3157 26.6122 16.6283 26.6636 16.913 26.7662C17.1977 26.8642 17.424 27.0159 17.592 27.2212C17.7647 27.4266 17.851 27.6786 17.851 27.9772C17.851 28.2712 17.8067 28.4929 17.718 28.6422C17.6293 28.7916 17.4987 28.8662 17.326 28.8662C17.2047 28.8662 17.102 28.8289 17.018 28.7542C16.9387 28.6796 16.899 28.5909 16.899 28.4882C16.899 28.3996 16.906 28.3179 16.92 28.2432C16.934 28.1032 16.941 28.0146 16.941 27.9772C16.941 27.7812 16.8453 27.6319 16.654 27.5292C16.4627 27.4266 16.2247 27.3752 15.94 27.3752C15.5387 27.3752 15.2307 27.4499 15.016 27.5992C14.806 27.7439 14.701 27.9492 14.701 28.2152C14.701 28.3926 14.7547 28.5442 14.862 28.6702C14.974 28.7962 15.1117 28.9012 15.275 28.9852C15.4383 29.0692 15.667 29.1696 15.961 29.2862C16.3157 29.4309 16.6003 29.5616 16.815 29.6782C17.0297 29.7949 17.2117 29.9536 17.361 30.1542C17.515 30.3549 17.592 30.6022 17.592 30.8962C17.592 31.4469 17.382 31.8716 16.962 32.1702C16.5467 32.4642 15.989 32.6112 15.289 32.6112ZM19.0505 32.5902C18.7612 32.5902 18.5302 32.4852 18.3575 32.2752C18.1848 32.0652 18.0985 31.7899 18.0985 31.4492C18.0985 31.0759 18.1848 30.7236 18.3575 30.3922C18.5302 30.0562 18.7588 29.7879 19.0435 29.5872C19.3328 29.3819 19.6385 29.2792 19.9605 29.2792C20.0632 29.2792 20.1308 29.3002 20.1635 29.3422C20.2008 29.3796 20.2312 29.4496 20.2545 29.5522C20.3525 29.5336 20.4552 29.5242 20.5625 29.5242C20.7912 29.5242 20.9055 29.6059 20.9055 29.7692C20.9055 29.8672 20.8705 30.1006 20.8005 30.4692C20.6932 31.0059 20.6395 31.3792 20.6395 31.5892C20.6395 31.6592 20.6558 31.7152 20.6885 31.7572C20.7258 31.7992 20.7725 31.8202 20.8285 31.8202C20.9172 31.8202 21.0245 31.7642 21.1505 31.6522C21.2765 31.5356 21.4468 31.3489 21.6615 31.0922C21.7175 31.0269 21.7805 30.9942 21.8505 30.9942C21.9112 30.9942 21.9578 31.0222 21.9905 31.0782C22.0278 31.1342 22.0465 31.2112 22.0465 31.3092C22.0465 31.4959 22.0022 31.6406 21.9135 31.7432C21.7222 31.9812 21.5192 32.1819 21.3045 32.3452C21.0898 32.5086 20.8822 32.5902 20.6815 32.5902C20.5275 32.5902 20.3852 32.5389 20.2545 32.4362C20.1285 32.3289 20.0328 32.1842 19.9675 32.0022C19.7248 32.3942 19.4192 32.5902 19.0505 32.5902ZM19.3025 31.8832C19.4052 31.8832 19.5032 31.8226 19.5965 31.7012C19.6898 31.5799 19.7575 31.4189 19.7995 31.2182L20.0585 29.9302C19.8625 29.9349 19.6805 30.0096 19.5125 30.1542C19.3492 30.2942 19.2185 30.4809 19.1205 30.7142C19.0225 30.9476 18.9735 31.1949 18.9735 31.4562C18.9735 31.6009 19.0015 31.7082 19.0575 31.7782C19.1182 31.8482 19.1998 31.8832 19.3025 31.8832ZM21.9746 32.5902C21.7973 32.5902 21.6713 32.4969 21.5966 32.3102C21.5266 32.1236 21.4916 31.8249 21.4916 31.4142C21.4916 30.8076 21.5779 30.2312 21.7506 29.6852C21.7926 29.5499 21.8603 29.4519 21.9536 29.3912C22.0516 29.3259 22.1869 29.2932 22.3596 29.2932C22.4529 29.2932 22.5183 29.3049 22.5556 29.3282C22.5929 29.3516 22.6116 29.3959 22.6116 29.4612C22.6116 29.5359 22.5766 29.7039 22.5066 29.9652C22.4599 30.1519 22.4226 30.3152 22.3946 30.4552C22.3666 30.5952 22.3433 30.7679 22.3246 30.9732C22.4786 30.5719 22.6513 30.2452 22.8426 29.9932C23.0339 29.7412 23.2206 29.5616 23.4026 29.4542C23.5893 29.3469 23.7596 29.2932 23.9136 29.2932C24.2169 29.2932 24.3686 29.4449 24.3686 29.7482C24.3686 29.9302 24.3173 30.2592 24.2146 30.7352C24.1259 31.1412 24.0816 31.4096 24.0816 31.5402C24.0816 31.7269 24.1493 31.8202 24.2846 31.8202C24.3779 31.8202 24.4876 31.7642 24.6136 31.6522C24.7443 31.5356 24.9169 31.3489 25.1316 31.0922C25.1876 31.0269 25.2506 30.9942 25.3206 30.9942C25.3813 30.9942 25.4279 31.0222 25.4606 31.0782C25.4979 31.1342 25.5166 31.2112 25.5166 31.3092C25.5166 31.4959 25.4723 31.6406 25.3836 31.7432C25.1829 31.9906 24.9659 32.1936 24.7326 32.3522C24.5039 32.5109 24.2426 32.5902 23.9486 32.5902C23.7106 32.5902 23.5309 32.5226 23.4096 32.3872C23.2883 32.2472 23.2276 32.0466 23.2276 31.7852C23.2276 31.6546 23.2603 31.4212 23.3256 31.0852C23.3863 30.7912 23.4166 30.5882 23.4166 30.4762C23.4166 30.4016 23.3909 30.3642 23.3396 30.3642C23.2789 30.3642 23.1926 30.4436 23.0806 30.6022C22.9733 30.7562 22.8613 30.9616 22.7446 31.2182C22.6326 31.4749 22.5416 31.7456 22.4716 32.0302C22.4203 32.2496 22.3596 32.3989 22.2896 32.4782C22.2243 32.5529 22.1193 32.5902 21.9746 32.5902ZM25.4473 32.5902C25.2699 32.5902 25.1439 32.4969 25.0693 32.3102C24.9993 32.1236 24.9643 31.8249 24.9643 31.4142C24.9643 30.8076 25.0506 30.2312 25.2233 29.6852C25.2653 29.5499 25.3329 29.4519 25.4263 29.3912C25.5243 29.3259 25.6596 29.2932 25.8323 29.2932C25.9256 29.2932 25.9909 29.3049 26.0283 29.3282C26.0656 29.3516 26.0843 29.3959 26.0843 29.4612C26.0843 29.5359 26.0493 29.7039 25.9793 29.9652C25.9326 30.1519 25.8953 30.3152 25.8673 30.4552C25.8393 30.5952 25.8159 30.7679 25.7973 30.9732C25.9513 30.5719 26.1239 30.2452 26.3153 29.9932C26.5066 29.7412 26.6933 29.5616 26.8753 29.4542C27.0619 29.3469 27.2323 29.2932 27.3863 29.2932C27.6896 29.2932 27.8413 29.4449 27.8413 29.7482C27.8413 29.9302 27.7899 30.2592 27.6873 30.7352C27.5986 31.1412 27.5543 31.4096 27.5543 31.5402C27.5543 31.7269 27.6219 31.8202 27.7573 31.8202C27.8506 31.8202 27.9603 31.7642 28.0863 31.6522C28.2169 31.5356 28.3896 31.3489 28.6043 31.0922C28.6603 31.0269 28.7233 30.9942 28.7933 30.9942C28.8539 30.9942 28.9006 31.0222 28.9333 31.0782C28.9706 31.1342 28.9893 31.2112 28.9893 31.3092C28.9893 31.4959 28.9449 31.6406 28.8563 31.7432C28.6556 31.9906 28.4386 32.1936 28.2053 32.3522C27.9766 32.5109 27.7153 32.5902 27.4213 32.5902C27.1833 32.5902 27.0036 32.5226 26.8823 32.3872C26.7609 32.2472 26.7003 32.0466 26.7003 31.7852C26.7003 31.6546 26.7329 31.4212 26.7983 31.0852C26.8589 30.7912 26.8893 30.5882 26.8893 30.4762C26.8893 30.4016 26.8636 30.3642 26.8123 30.3642C26.7516 30.3642 26.6653 30.4436 26.5533 30.6022C26.4459 30.7562 26.3339 30.9616 26.2173 31.2182C26.1053 31.4749 26.0143 31.7456 25.9443 32.0302C25.8929 32.2496 25.8323 32.3989 25.7623 32.4782C25.6969 32.5529 25.5919 32.5902 25.4473 32.5902ZM31.0759 30.9942C31.1366 30.9942 31.1832 31.0222 31.2159 31.0782C31.2532 31.1342 31.2719 31.2112 31.2719 31.3092C31.2719 31.4959 31.2276 31.6406 31.1389 31.7432C30.9382 31.9906 30.7189 32.1936 30.4809 32.3522C30.2476 32.5109 29.9816 32.5902 29.6829 32.5902C29.2722 32.5902 28.9666 32.4036 28.7659 32.0302C28.5699 31.6569 28.4719 31.1739 28.4719 30.5812C28.4719 30.0119 28.5442 29.3632 28.6889 28.6352C28.8382 27.9072 29.0552 27.2819 29.3399 26.7592C29.6292 26.2366 29.9722 25.9752 30.3689 25.9752C30.5929 25.9752 30.7679 26.0802 30.8939 26.2902C31.0246 26.4956 31.0899 26.7919 31.0899 27.1792C31.0899 27.7346 30.9359 28.3786 30.6279 29.1112C30.3199 29.8439 29.9022 30.5696 29.3749 31.2882C29.4076 31.4796 29.4612 31.6172 29.5359 31.7012C29.6106 31.7806 29.7086 31.8202 29.8299 31.8202C30.0212 31.8202 30.1892 31.7666 30.3339 31.6592C30.4786 31.5472 30.6629 31.3582 30.8869 31.0922C30.9429 31.0269 31.0059 30.9942 31.0759 30.9942ZM30.2149 26.6682C30.1076 26.6682 29.9862 26.8619 29.8509 27.2492C29.7156 27.6366 29.5966 28.1172 29.4939 28.6912C29.3912 29.2652 29.3352 29.8159 29.3259 30.3432C29.6572 29.7972 29.9209 29.2512 30.1169 28.7052C30.3129 28.1546 30.4109 27.6529 30.4109 27.2002C30.4109 26.8456 30.3456 26.6682 30.2149 26.6682ZM31.4988 32.5902C31.2094 32.5902 30.9784 32.4852 30.8058 32.2752C30.6331 32.0652 30.5468 31.7899 30.5468 31.4492C30.5468 31.0759 30.6331 30.7236 30.8058 30.3922C30.9784 30.0562 31.2071 29.7879 31.4918 29.5872C31.7811 29.3819 32.0868 29.2792 32.4088 29.2792C32.5114 29.2792 32.5791 29.3002 32.6118 29.3422C32.6491 29.3796 32.6794 29.4496 32.7028 29.5522C32.8008 29.5336 32.9034 29.5242 33.0108 29.5242C33.2394 29.5242 33.3538 29.6059 33.3538 29.7692C33.3538 29.8672 33.3188 30.1006 33.2488 30.4692C33.1414 31.0059 33.0878 31.3792 33.0878 31.5892C33.0878 31.6592 33.1041 31.7152 33.1368 31.7572C33.1741 31.7992 33.2208 31.8202 33.2768 31.8202C33.3654 31.8202 33.4728 31.7642 33.5988 31.6522C33.7248 31.5356 33.8951 31.3489 34.1098 31.0922C34.1658 31.0269 34.2288 30.9942 34.2988 30.9942C34.3594 30.9942 34.4061 31.0222 34.4388 31.0782C34.4761 31.1342 34.4948 31.2112 34.4948 31.3092C34.4948 31.4959 34.4504 31.6406 34.3618 31.7432C34.1704 31.9812 33.9674 32.1819 33.7528 32.3452C33.5381 32.5086 33.3304 32.5902 33.1298 32.5902C32.9758 32.5902 32.8334 32.5389 32.7028 32.4362C32.5768 32.3289 32.4811 32.1842 32.4158 32.0022C32.1731 32.3942 31.8674 32.5902 31.4988 32.5902ZM31.7508 31.8832C31.8534 31.8832 31.9514 31.8226 32.0448 31.7012C32.1381 31.5799 32.2058 31.4189 32.2478 31.2182L32.5068 29.9302C32.3108 29.9349 32.1288 30.0096 31.9608 30.1542C31.7974 30.2942 31.6668 30.4809 31.5688 30.7142C31.4708 30.9476 31.4218 31.1949 31.4218 31.4562C31.4218 31.6009 31.4498 31.7082 31.5058 31.7782C31.5664 31.8482 31.6481 31.8832 31.7508 31.8832ZM39.2162 30.4272C39.2302 30.4226 39.2535 30.4202 39.2862 30.4202C39.3562 30.4202 39.4099 30.4436 39.4472 30.4902C39.4845 30.5369 39.5032 30.5999 39.5032 30.6792C39.5032 30.8239 39.4752 30.9382 39.4192 31.0222C39.3632 31.1016 39.2792 31.1599 39.1672 31.1972C38.9525 31.2672 38.7239 31.3022 38.4812 31.3022C38.2759 31.3022 38.0822 31.2742 37.9002 31.2182C37.7649 31.4376 37.6155 31.6639 37.4522 31.8972C37.2655 32.1632 37.1045 32.3452 36.9692 32.4432C36.8385 32.5412 36.6892 32.5902 36.5212 32.5902C36.3345 32.5902 36.1922 32.5179 36.0942 32.3732C36.0009 32.2286 35.9425 31.9906 35.9192 31.6592L35.8842 31.1482C35.7395 31.5402 35.6089 31.8389 35.4922 32.0442C35.3802 32.2496 35.2659 32.3919 35.1492 32.4712C35.0372 32.5506 34.9042 32.5902 34.7502 32.5902C34.5589 32.5902 34.4072 32.5156 34.2952 32.3662C34.1879 32.2169 34.1202 31.9812 34.0922 31.6592C34.0362 31.0059 34.0082 30.4342 34.0082 29.9442V29.6992C34.0129 29.5452 34.0549 29.4379 34.1342 29.3772C34.2135 29.3166 34.3325 29.2862 34.4912 29.2862C34.6125 29.2862 34.7012 29.3142 34.7572 29.3702C34.8179 29.4216 34.8482 29.5102 34.8482 29.6362C34.8482 30.1729 34.8809 30.8706 34.9462 31.7292C35.2635 31.0619 35.5552 30.3666 35.8212 29.6432C35.8725 29.5032 35.9332 29.4099 36.0032 29.3632C36.0779 29.3119 36.1665 29.2862 36.2692 29.2862C36.3952 29.2862 36.4815 29.3119 36.5282 29.3632C36.5795 29.4146 36.6052 29.5056 36.6052 29.6362C36.6052 30.1729 36.6379 30.8706 36.7032 31.7292C36.9832 31.3139 37.1932 30.9826 37.3332 30.7352C37.2632 30.5999 37.2282 30.4389 37.2282 30.2522C37.2282 30.0936 37.2632 29.9396 37.3332 29.7902C37.4032 29.6409 37.4989 29.5196 37.6202 29.4262C37.7415 29.3329 37.8792 29.2862 38.0332 29.2862C38.1685 29.2862 38.2782 29.3352 38.3622 29.4332C38.4462 29.5266 38.4882 29.6642 38.4882 29.8462C38.4882 30.0562 38.4322 30.2966 38.3202 30.5672C38.4975 30.5579 38.7332 30.5229 39.0272 30.4622L39.2162 30.4272ZM42.4656 30.4062C42.5262 30.4062 42.5729 30.4366 42.6056 30.4972C42.6382 30.5579 42.6546 30.6349 42.6546 30.7282C42.6546 30.9522 42.5869 31.0852 42.4516 31.1272C42.1716 31.2252 41.8636 31.2812 41.5276 31.2952C41.4389 31.6872 41.2639 32.0022 41.0026 32.2402C40.7412 32.4736 40.4449 32.5902 40.1136 32.5902C39.8336 32.5902 39.5932 32.5226 39.3926 32.3872C39.1966 32.2519 39.0472 32.0722 38.9446 31.8482C38.8419 31.6242 38.7906 31.3816 38.7906 31.1202C38.7906 30.7656 38.8582 30.4506 38.9936 30.1752C39.1289 29.8952 39.3156 29.6782 39.5536 29.5242C39.7916 29.3656 40.0552 29.2862 40.3446 29.2862C40.6992 29.2862 40.9839 29.4099 41.1986 29.6572C41.4179 29.8999 41.5462 30.2009 41.5836 30.5602C41.8029 30.5462 42.0642 30.4996 42.3676 30.4202C42.4049 30.4109 42.4376 30.4062 42.4656 30.4062ZM40.1696 31.8482C40.3189 31.8482 40.4472 31.7876 40.5546 31.6662C40.6666 31.5449 40.7412 31.3699 40.7786 31.1412C40.6339 31.0432 40.5219 30.9149 40.4426 30.7562C40.3679 30.5976 40.3306 30.4296 40.3306 30.2522C40.3306 30.1776 40.3376 30.1029 40.3516 30.0282H40.3166C40.1299 30.0282 39.9736 30.1192 39.8476 30.3012C39.7262 30.4786 39.6656 30.7306 39.6656 31.0572C39.6656 31.3139 39.7146 31.5099 39.8126 31.6452C39.9152 31.7806 40.0342 31.8482 40.1696 31.8482ZM42.5508 32.5902C42.3734 32.5902 42.2474 32.4969 42.1728 32.3102C42.1028 32.1236 42.0678 31.8249 42.0678 31.4142C42.0678 30.8076 42.1541 30.2312 42.3268 29.6852C42.3688 29.5499 42.4364 29.4519 42.5298 29.3912C42.6278 29.3259 42.7631 29.2932 42.9358 29.2932C43.0291 29.2932 43.0944 29.3049 43.1318 29.3282C43.1691 29.3516 43.1878 29.3959 43.1878 29.4612C43.1878 29.5359 43.1528 29.7039 43.0828 29.9652C43.0361 30.1519 42.9988 30.3152 42.9708 30.4552C42.9428 30.5952 42.9194 30.7679 42.9008 30.9732C43.0548 30.5719 43.2274 30.2452 43.4188 29.9932C43.6101 29.7412 43.7968 29.5616 43.9788 29.4542C44.1654 29.3469 44.3358 29.2932 44.4898 29.2932C44.6391 29.2932 44.7511 29.3329 44.8258 29.4122C44.9051 29.4869 44.9448 29.5989 44.9448 29.7482C44.9448 29.8696 44.9191 30.0982 44.8678 30.4342C44.8211 30.7189 44.7838 30.9896 44.7558 31.2462C44.7278 31.4982 44.7138 31.7806 44.7138 32.0932C44.7138 32.2706 44.6764 32.3989 44.6018 32.4782C44.5318 32.5529 44.4151 32.5902 44.2518 32.5902C44.0978 32.5902 43.9858 32.5506 43.9158 32.4712C43.8458 32.3919 43.8108 32.2729 43.8108 32.1142C43.8108 31.9276 43.8434 31.6196 43.9088 31.1902C43.9648 30.8169 43.9928 30.5789 43.9928 30.4762C43.9928 30.4016 43.9671 30.3642 43.9158 30.3642C43.8551 30.3642 43.7688 30.4436 43.6568 30.6022C43.5494 30.7562 43.4374 30.9616 43.3208 31.2182C43.2088 31.4749 43.1178 31.7456 43.0478 32.0302C42.9964 32.2496 42.9358 32.3989 42.8658 32.4782C42.8004 32.5529 42.6954 32.5902 42.5508 32.5902Z" fill="url(#paint0_linear_35_37)"/>
<defs>
<filter id="filter0_i_35_37" x="5.97675" y="16.997" width="15.8049" height="17.4697" filterUnits="userSpaceOnUse" color-interpolation-filters="sRGB">
<feFlood flood-opacity="0" result="BackgroundImageFix"/>
<feBlend mode="normal" in="SourceGraphic" in2="BackgroundImageFix" result="shape"/>
<feColorMatrix in="SourceAlpha" type="matrix" values="0 0 0 0 0 0 0 0 0 0 0 0 0 0 0 0 0 0 127 0" result="hardAlpha"/>
<feOffset dx="3" dy="4"/>
<feGaussianBlur stdDeviation="1.5"/>
<feComposite in2="hardAlpha" operator="arithmetic" k2="-1" k3="1"/>
<feColorMatrix type="matrix" values="0 0 0 0 0.0408334 0 0 0 0 0.816667 0 0 0 0 0.68559 0 0 0 0.05 0"/>
<feBlend mode="normal" in2="shape" result="effect1_innerShadow_35_37"/>
</filter>
<linearGradient id="paint0_linear_35_37" x1="15.0326" y1="23.5552" x2="45.5272" y2="36.2391" gradientUnits="userSpaceOnUse">
<stop stop-color="white"/>
<stop offset="0.922471" stop-color="white"/>
</linearGradient>
</defs>
</svg>
