<svg width="50" height="50" viewBox="0 0 50 50" fill="none" xmlns="http://www.w3.org/2000/svg">
<rect y="6.10352e-05" width="50" height="50" rx="5" fill="#0BE6C1"/>
<g filter="url(#filter0_i_36_47)">
<path fill-rule="evenodd" clip-rule="evenodd" d="M16.8202 41.2268C16.9127 40.0681 16.9482 38.8604 16.986 37.5743C17.083 34.2716 17.1953 30.4524 18.327 25.6207C20.176 17.7271 28.8591 14.6124 35.5197 13.8912C33.8014 12.2875 31.7164 11.0219 29.3374 10.2384C20.5532 7.3453 11.0868 12.121 8.19376 20.9053C5.53345 28.9828 9.35761 37.6371 16.8202 41.2268Z" fill="white"/>
</g>
<path d="M21.635 34.04C21.1917 34.04 20.8367 33.9567 20.57 33.79C20.3033 33.62 20.17 33.3617 20.17 33.015C20.17 32.8317 20.2017 32.6917 20.265 32.595C20.3283 32.4983 20.4217 32.45 20.545 32.45C20.635 32.45 20.7083 32.4733 20.765 32.52C20.8217 32.5667 20.85 32.6267 20.85 32.7C20.85 32.7667 20.845 32.825 20.835 32.875C20.835 32.8883 20.8317 32.9117 20.825 32.945C20.8217 32.9783 20.82 33.0133 20.82 33.05C20.82 33.2 20.895 33.3117 21.045 33.385C21.1983 33.4583 21.4117 33.495 21.685 33.495C21.9683 33.495 22.19 33.445 22.35 33.345C22.51 33.2417 22.59 33.0983 22.59 32.915C22.59 32.8017 22.5533 32.705 22.48 32.625C22.4067 32.5417 22.315 32.4733 22.205 32.42C22.095 32.3633 21.94 32.295 21.74 32.215C21.4833 32.115 21.2733 32.02 21.11 31.93C20.95 31.84 20.8117 31.7183 20.695 31.565C20.5817 31.4083 20.525 31.215 20.525 30.985C20.525 30.745 20.5883 30.5317 20.715 30.345C20.845 30.1583 21.03 30.0133 21.27 29.91C21.5133 29.8067 21.7983 29.755 22.125 29.755C22.3683 29.755 22.5917 29.7917 22.795 29.865C22.9983 29.935 23.16 30.0433 23.28 30.19C23.4033 30.3367 23.465 30.5167 23.465 30.73C23.465 30.94 23.4333 31.0983 23.37 31.205C23.3067 31.3117 23.2133 31.365 23.09 31.365C23.0033 31.365 22.93 31.3383 22.87 31.285C22.8133 31.2317 22.785 31.1683 22.785 31.095C22.785 31.0317 22.79 30.9733 22.8 30.92C22.81 30.82 22.815 30.7567 22.815 30.73C22.815 30.59 22.7467 30.4833 22.61 30.41C22.4733 30.3367 22.3033 30.3 22.1 30.3C21.8133 30.3 21.5933 30.3533 21.44 30.46C21.29 30.5633 21.215 30.71 21.215 30.9C21.215 31.0267 21.2533 31.135 21.33 31.225C21.41 31.315 21.5083 31.39 21.625 31.45C21.7417 31.51 21.905 31.5817 22.115 31.665C22.3683 31.7683 22.5717 31.8617 22.725 31.945C22.8783 32.0283 23.0083 32.1417 23.115 32.285C23.225 32.4283 23.28 32.605 23.28 32.815C23.28 33.2083 23.13 33.5117 22.83 33.725C22.5333 33.935 22.135 34.04 21.635 34.04ZM24.3218 34.025C24.1151 34.025 23.9501 33.95 23.8268 33.8C23.7035 33.65 23.6418 33.4533 23.6418 33.21C23.6418 32.9433 23.7035 32.6917 23.8268 32.455C23.9501 32.215 24.1135 32.0233 24.3168 31.88C24.5235 31.7333 24.7418 31.66 24.9718 31.66C25.0451 31.66 25.0935 31.675 25.1168 31.705C25.1435 31.7317 25.1651 31.7817 25.1818 31.855C25.2518 31.8417 25.3251 31.835 25.4018 31.835C25.5651 31.835 25.6468 31.8933 25.6468 32.01C25.6468 32.08 25.6218 32.2467 25.5718 32.51C25.4951 32.8933 25.4568 33.16 25.4568 33.31C25.4568 33.36 25.4685 33.4 25.4918 33.43C25.5185 33.46 25.5518 33.475 25.5918 33.475C25.6551 33.475 25.7318 33.435 25.8218 33.355C25.9118 33.2717 26.0335 33.1383 26.1868 32.955C26.2268 32.9083 26.2718 32.885 26.3218 32.885C26.3651 32.885 26.3985 32.905 26.4218 32.945C26.4485 32.985 26.4618 33.04 26.4618 33.11C26.4618 33.2433 26.4301 33.3467 26.3668 33.42C26.2301 33.59 26.0851 33.7333 25.9318 33.85C25.7785 33.9667 25.6301 34.025 25.4868 34.025C25.3768 34.025 25.2751 33.9883 25.1818 33.915C25.0918 33.8383 25.0235 33.735 24.9768 33.605C24.8035 33.885 24.5851 34.025 24.3218 34.025ZM24.5018 33.52C24.5751 33.52 24.6451 33.4767 24.7118 33.39C24.7785 33.3033 24.8268 33.1883 24.8568 33.045L25.0418 32.125C24.9018 32.1283 24.7718 32.1817 24.6518 32.285C24.5351 32.385 24.4418 32.5183 24.3718 32.685C24.3018 32.8517 24.2668 33.0283 24.2668 33.215C24.2668 33.3183 24.2868 33.395 24.3268 33.445C24.3701 33.495 24.4285 33.52 24.5018 33.52ZM26.4104 34.025C26.2838 34.025 26.1938 33.9583 26.1404 33.825C26.0904 33.6917 26.0654 33.4783 26.0654 33.185C26.0654 32.7517 26.1271 32.34 26.2504 31.95C26.2804 31.8533 26.3288 31.7833 26.3954 31.74C26.4654 31.6933 26.5621 31.67 26.6854 31.67C26.7521 31.67 26.7988 31.6783 26.8254 31.695C26.8521 31.7117 26.8654 31.7433 26.8654 31.79C26.8654 31.8433 26.8404 31.9633 26.7904 32.15C26.7571 32.2833 26.7304 32.4 26.7104 32.5C26.6904 32.6 26.6738 32.7233 26.6604 32.87C26.7704 32.5833 26.8938 32.35 27.0304 32.17C27.1671 31.99 27.3004 31.8617 27.4304 31.785C27.5638 31.7083 27.6854 31.67 27.7954 31.67C28.0121 31.67 28.1204 31.7783 28.1204 31.995C28.1204 32.125 28.0838 32.36 28.0104 32.7C27.9471 32.99 27.9154 33.1817 27.9154 33.275C27.9154 33.4083 27.9638 33.475 28.0604 33.475C28.1271 33.475 28.2054 33.435 28.2954 33.355C28.3888 33.2717 28.5121 33.1383 28.6654 32.955C28.7054 32.9083 28.7504 32.885 28.8004 32.885C28.8438 32.885 28.8771 32.905 28.9004 32.945C28.9271 32.985 28.9404 33.04 28.9404 33.11C28.9404 33.2433 28.9088 33.3467 28.8454 33.42C28.7021 33.5967 28.5471 33.7417 28.3804 33.855C28.2171 33.9683 28.0304 34.025 27.8204 34.025C27.6504 34.025 27.5221 33.9767 27.4354 33.88C27.3488 33.78 27.3054 33.6367 27.3054 33.45C27.3054 33.3567 27.3288 33.19 27.3754 32.95C27.4188 32.74 27.4404 32.595 27.4404 32.515C27.4404 32.4617 27.4221 32.435 27.3854 32.435C27.3421 32.435 27.2804 32.4917 27.2004 32.605C27.1238 32.715 27.0438 32.8617 26.9604 33.045C26.8804 33.2283 26.8154 33.4217 26.7654 33.625C26.7288 33.7817 26.6854 33.8883 26.6354 33.945C26.5888 33.9983 26.5138 34.025 26.4104 34.025ZM28.8909 34.025C28.7642 34.025 28.6742 33.9583 28.6209 33.825C28.5709 33.6917 28.5459 33.4783 28.5459 33.185C28.5459 32.7517 28.6076 32.34 28.7309 31.95C28.7609 31.8533 28.8092 31.7833 28.8759 31.74C28.9459 31.6933 29.0426 31.67 29.1659 31.67C29.2326 31.67 29.2792 31.6783 29.3059 31.695C29.3326 31.7117 29.3459 31.7433 29.3459 31.79C29.3459 31.8433 29.3209 31.9633 29.2709 32.15C29.2376 32.2833 29.2109 32.4 29.1909 32.5C29.1709 32.6 29.1542 32.7233 29.1409 32.87C29.2509 32.5833 29.3742 32.35 29.5109 32.17C29.6476 31.99 29.7809 31.8617 29.9109 31.785C30.0442 31.7083 30.1659 31.67 30.2759 31.67C30.4926 31.67 30.6009 31.7783 30.6009 31.995C30.6009 32.125 30.5642 32.36 30.4909 32.7C30.4276 32.99 30.3959 33.1817 30.3959 33.275C30.3959 33.4083 30.4442 33.475 30.5409 33.475C30.6076 33.475 30.6859 33.435 30.7759 33.355C30.8692 33.2717 30.9926 33.1383 31.1459 32.955C31.1859 32.9083 31.2309 32.885 31.2809 32.885C31.3242 32.885 31.3576 32.905 31.3809 32.945C31.4076 32.985 31.4209 33.04 31.4209 33.11C31.4209 33.2433 31.3892 33.3467 31.3259 33.42C31.1826 33.5967 31.0276 33.7417 30.8609 33.855C30.6976 33.9683 30.5109 34.025 30.3009 34.025C30.1309 34.025 30.0026 33.9767 29.9159 33.88C29.8292 33.78 29.7859 33.6367 29.7859 33.45C29.7859 33.3567 29.8092 33.19 29.8559 32.95C29.8992 32.74 29.9209 32.595 29.9209 32.515C29.9209 32.4617 29.9026 32.435 29.8659 32.435C29.8226 32.435 29.7609 32.4917 29.6809 32.605C29.6042 32.715 29.5242 32.8617 29.4409 33.045C29.3609 33.2283 29.2959 33.4217 29.2459 33.625C29.2092 33.7817 29.1659 33.8883 29.1159 33.945C29.0692 33.9983 28.9942 34.025 28.8909 34.025ZM32.9114 32.885C32.9547 32.885 32.988 32.905 33.0114 32.945C33.038 32.985 33.0514 33.04 33.0514 33.11C33.0514 33.2433 33.0197 33.3467 32.9564 33.42C32.813 33.5967 32.6564 33.7417 32.4864 33.855C32.3197 33.9683 32.1297 34.025 31.9164 34.025C31.623 34.025 31.4047 33.8917 31.2614 33.625C31.1214 33.3583 31.0514 33.0133 31.0514 32.59C31.0514 32.1833 31.103 31.72 31.2064 31.2C31.313 30.68 31.468 30.2333 31.6714 29.86C31.878 29.4867 32.123 29.3 32.4064 29.3C32.5664 29.3 32.6914 29.375 32.7814 29.525C32.8747 29.6717 32.9214 29.8833 32.9214 30.16C32.9214 30.5567 32.8114 31.0167 32.5914 31.54C32.3714 32.0633 32.073 32.5817 31.6964 33.095C31.7197 33.2317 31.758 33.33 31.8114 33.39C31.8647 33.4467 31.9347 33.475 32.0214 33.475C32.158 33.475 32.278 33.4367 32.3814 33.36C32.4847 33.28 32.6164 33.145 32.7764 32.955C32.8164 32.9083 32.8614 32.885 32.9114 32.885ZM32.2964 29.795C32.2197 29.795 32.133 29.9333 32.0364 30.21C31.9397 30.4867 31.8547 30.83 31.7814 31.24C31.708 31.65 31.668 32.0433 31.6614 32.42C31.898 32.03 32.0864 31.64 32.2264 31.25C32.3664 30.8567 32.4364 30.4983 32.4364 30.175C32.4364 29.9217 32.3897 29.795 32.2964 29.795ZM33.2134 34.025C33.0067 34.025 32.8417 33.95 32.7184 33.8C32.5951 33.65 32.5334 33.4533 32.5334 33.21C32.5334 32.9433 32.5951 32.6917 32.7184 32.455C32.8417 32.215 33.0051 32.0233 33.2084 31.88C33.4151 31.7333 33.6334 31.66 33.8634 31.66C33.9367 31.66 33.9851 31.675 34.0084 31.705C34.0351 31.7317 34.0567 31.7817 34.0734 31.855C34.1434 31.8417 34.2167 31.835 34.2934 31.835C34.4567 31.835 34.5384 31.8933 34.5384 32.01C34.5384 32.08 34.5134 32.2467 34.4634 32.51C34.3867 32.8933 34.3484 33.16 34.3484 33.31C34.3484 33.36 34.3601 33.4 34.3834 33.43C34.4101 33.46 34.4434 33.475 34.4834 33.475C34.5467 33.475 34.6234 33.435 34.7134 33.355C34.8034 33.2717 34.9251 33.1383 35.0784 32.955C35.1184 32.9083 35.1634 32.885 35.2134 32.885C35.2567 32.885 35.2901 32.905 35.3134 32.945C35.3401 32.985 35.3534 33.04 35.3534 33.11C35.3534 33.2433 35.3217 33.3467 35.2584 33.42C35.1217 33.59 34.9767 33.7333 34.8234 33.85C34.6701 33.9667 34.5217 34.025 34.3784 34.025C34.2684 34.025 34.1667 33.9883 34.0734 33.915C33.9834 33.8383 33.9151 33.735 33.8684 33.605C33.6951 33.885 33.4767 34.025 33.2134 34.025ZM33.3934 33.52C33.4667 33.52 33.5367 33.4767 33.6034 33.39C33.6701 33.3033 33.7184 33.1883 33.7484 33.045L33.9334 32.125C33.7934 32.1283 33.6634 32.1817 33.5434 32.285C33.4267 32.385 33.3334 32.5183 33.2634 32.685C33.1934 32.8517 33.1584 33.0283 33.1584 33.215C33.1584 33.3183 33.1784 33.395 33.2184 33.445C33.2617 33.495 33.3201 33.52 33.3934 33.52ZM38.7259 32.48C38.7359 32.4767 38.7525 32.475 38.7759 32.475C38.8259 32.475 38.8642 32.4917 38.8909 32.525C38.9175 32.5583 38.9309 32.6033 38.9309 32.66C38.9309 32.7633 38.9109 32.845 38.8709 32.905C38.8309 32.9617 38.7709 33.0033 38.6909 33.03C38.5375 33.08 38.3742 33.105 38.2009 33.105C38.0542 33.105 37.9159 33.085 37.7859 33.045C37.6892 33.2017 37.5825 33.3633 37.4659 33.53C37.3325 33.72 37.2175 33.85 37.1209 33.92C37.0275 33.99 36.9209 34.025 36.8009 34.025C36.6675 34.025 36.5659 33.9733 36.4959 33.87C36.4292 33.7667 36.3875 33.5967 36.3709 33.36L36.3459 32.995C36.2425 33.275 36.1492 33.4883 36.0659 33.635C35.9859 33.7817 35.9042 33.8833 35.8209 33.94C35.7409 33.9967 35.6459 34.025 35.5359 34.025C35.3992 34.025 35.2909 33.9717 35.2109 33.865C35.1342 33.7583 35.0859 33.59 35.0659 33.36C35.0259 32.8933 35.0059 32.485 35.0059 32.135V31.96C35.0092 31.85 35.0392 31.7733 35.0959 31.73C35.1525 31.6867 35.2375 31.665 35.3509 31.665C35.4375 31.665 35.5009 31.685 35.5409 31.725C35.5842 31.7617 35.6059 31.825 35.6059 31.915C35.6059 32.2983 35.6292 32.7967 35.6759 33.41C35.9025 32.9333 36.1109 32.4367 36.3009 31.92C36.3375 31.82 36.3809 31.7533 36.4309 31.72C36.4842 31.6833 36.5475 31.665 36.6209 31.665C36.7109 31.665 36.7725 31.6833 36.8059 31.72C36.8425 31.7567 36.8609 31.8217 36.8609 31.915C36.8609 32.2983 36.8842 32.7967 36.9309 33.41C37.1309 33.1133 37.2809 32.8767 37.3809 32.7C37.3309 32.6033 37.3059 32.4883 37.3059 32.355C37.3059 32.2417 37.3309 32.1317 37.3809 32.025C37.4309 31.9183 37.4992 31.8317 37.5859 31.765C37.6725 31.6983 37.7709 31.665 37.8809 31.665C37.9775 31.665 38.0559 31.7 38.1159 31.77C38.1759 31.8367 38.2059 31.935 38.2059 32.065C38.2059 32.215 38.1659 32.3867 38.0859 32.58C38.2125 32.5733 38.3809 32.5483 38.5909 32.505L38.7259 32.48ZM41.0468 32.465C41.0902 32.465 41.1235 32.4867 41.1468 32.53C41.1702 32.5733 41.1818 32.6283 41.1818 32.695C41.1818 32.855 41.1335 32.95 41.0368 32.98C40.8368 33.05 40.6168 33.09 40.3768 33.1C40.3135 33.38 40.1885 33.605 40.0018 33.775C39.8152 33.9417 39.6035 34.025 39.3668 34.025C39.1668 34.025 38.9952 33.9767 38.8518 33.88C38.7118 33.7833 38.6052 33.655 38.5318 33.495C38.4585 33.335 38.4218 33.1617 38.4218 32.975C38.4218 32.7217 38.4702 32.4967 38.5668 32.3C38.6635 32.1 38.7968 31.945 38.9668 31.835C39.1368 31.7217 39.3252 31.665 39.5318 31.665C39.7852 31.665 39.9885 31.7533 40.1418 31.93C40.2985 32.1033 40.3902 32.3183 40.4168 32.575C40.5735 32.565 40.7602 32.5317 40.9768 32.475C41.0035 32.4683 41.0268 32.465 41.0468 32.465ZM39.4068 33.495C39.5135 33.495 39.6052 33.4517 39.6818 33.365C39.7618 33.2783 39.8152 33.1533 39.8418 32.99C39.7385 32.92 39.6585 32.8283 39.6018 32.715C39.5485 32.6017 39.5218 32.4817 39.5218 32.355C39.5218 32.3017 39.5268 32.2483 39.5368 32.195H39.5118C39.3785 32.195 39.2668 32.26 39.1768 32.39C39.0902 32.5167 39.0468 32.6967 39.0468 32.93C39.0468 33.1133 39.0818 33.2533 39.1518 33.35C39.2252 33.4467 39.3102 33.495 39.4068 33.495ZM41.1077 34.025C40.981 34.025 40.891 33.9583 40.8377 33.825C40.7877 33.6917 40.7627 33.4783 40.7627 33.185C40.7627 32.7517 40.8244 32.34 40.9477 31.95C40.9777 31.8533 41.026 31.7833 41.0927 31.74C41.1627 31.6933 41.2594 31.67 41.3827 31.67C41.4494 31.67 41.496 31.6783 41.5227 31.695C41.5494 31.7117 41.5627 31.7433 41.5627 31.79C41.5627 31.8433 41.5377 31.9633 41.4877 32.15C41.4544 32.2833 41.4277 32.4 41.4077 32.5C41.3877 32.6 41.371 32.7233 41.3577 32.87C41.4677 32.5833 41.591 32.35 41.7277 32.17C41.8644 31.99 41.9977 31.8617 42.1277 31.785C42.261 31.7083 42.3827 31.67 42.4927 31.67C42.5994 31.67 42.6794 31.6983 42.7327 31.755C42.7894 31.8083 42.8177 31.8883 42.8177 31.995C42.8177 32.0817 42.7994 32.245 42.7627 32.485C42.7294 32.6883 42.7027 32.8817 42.6827 33.065C42.6627 33.245 42.6527 33.4467 42.6527 33.67C42.6527 33.7967 42.626 33.8883 42.5727 33.945C42.5227 33.9983 42.4394 34.025 42.3227 34.025C42.2127 34.025 42.1327 33.9967 42.0827 33.94C42.0327 33.8833 42.0077 33.7983 42.0077 33.685C42.0077 33.5517 42.031 33.3317 42.0777 33.025C42.1177 32.7583 42.1377 32.5883 42.1377 32.515C42.1377 32.4617 42.1194 32.435 42.0827 32.435C42.0394 32.435 41.9777 32.4917 41.8977 32.605C41.821 32.715 41.741 32.8617 41.6577 33.045C41.5777 33.2283 41.5127 33.4217 41.4627 33.625C41.426 33.7817 41.3827 33.8883 41.3327 33.945C41.286 33.9983 41.211 34.025 41.1077 34.025Z" fill="url(#paint0_linear_36_47)"/>
<defs>
<filter id="filter0_i_36_47" x="7.34882" y="9.39343" width="31.1709" height="34.8334" filterUnits="userSpaceOnUse" color-interpolation-filters="sRGB">
<feFlood flood-opacity="0" result="BackgroundImageFix"/>
<feBlend mode="normal" in="SourceGraphic" in2="BackgroundImageFix" result="shape"/>
<feColorMatrix in="SourceAlpha" type="matrix" values="0 0 0 0 0 0 0 0 0 0 0 0 0 0 0 0 0 0 127 0" result="hardAlpha"/>
<feOffset dx="3" dy="4"/>
<feGaussianBlur stdDeviation="1.5"/>
<feComposite in2="hardAlpha" operator="arithmetic" k2="-1" k3="1"/>
<feColorMatrix type="matrix" values="0 0 0 0 0.0408334 0 0 0 0 0.816667 0 0 0 0 0.68559 0 0 0 0.05 0"/>
<feBlend mode="normal" in2="shape" result="effect1_innerShadow_36_47"/>
</filter>
<linearGradient id="paint0_linear_36_47" x1="21.4167" y1="27" x2="43.1069" y2="35.3839" gradientUnits="userSpaceOnUse">
<stop stop-color="white"/>
<stop offset="0.922471" stop-color="white"/>
</linearGradient>
</defs>
</svg>
