<svg width="180" height="72" viewBox="0 0 180 72" fill="none" xmlns="http://www.w3.org/2000/svg">
<path fill-rule="evenodd" clip-rule="evenodd" d="M43.8811 13.3688C34.8935 14.3697 23.1767 18.6927 20.6817 29.6484C19.1545 36.3544 19.0031 41.6552 18.8721 46.2392C18.8211 48.0241 18.7732 49.7004 18.6484 51.3086C8.57873 46.3262 3.41861 34.3148 7.00834 23.1039C10.9122 10.912 23.6858 4.28366 35.539 8.29903C38.7491 9.38648 41.5625 11.1431 43.8811 13.3688Z" fill="white"/>
<path d="M38.3866 54.8942C35.4606 54.8942 33.1176 54.3442 31.3576 53.2442C29.5976 52.1222 28.7176 50.4172 28.7176 48.1292C28.7176 46.9192 28.9266 45.9952 29.3446 45.3572C29.7626 44.7192 30.3786 44.4002 31.1926 44.4002C31.7866 44.4002 32.2706 44.5542 32.6446 44.8622C33.0186 45.1702 33.2056 45.5662 33.2056 46.0502C33.2056 46.4902 33.1726 46.8752 33.1066 47.2052C33.1066 47.2932 33.0846 47.4472 33.0406 47.6672C33.0186 47.8872 33.0076 48.1182 33.0076 48.3602C33.0076 49.3502 33.5026 50.0872 34.4926 50.5712C35.5046 51.0552 36.9126 51.2972 38.7166 51.2972C40.5866 51.2972 42.0496 50.9672 43.1056 50.3072C44.1616 49.6252 44.6896 48.6792 44.6896 47.4692C44.6896 46.7212 44.4476 46.0832 43.9636 45.5552C43.4796 45.0052 42.8746 44.5542 42.1486 44.2022C41.4226 43.8282 40.3996 43.3772 39.0796 42.8492C37.3856 42.1892 35.9996 41.5622 34.9216 40.9682C33.8656 40.3742 32.9526 39.5712 32.1826 38.5592C31.4346 37.5252 31.0606 36.2492 31.0606 34.7312C31.0606 33.1472 31.4786 31.7392 32.3146 30.5072C33.1726 29.2752 34.3936 28.3182 35.9776 27.6362C37.5836 26.9542 39.4646 26.6132 41.6206 26.6132C43.2266 26.6132 44.7006 26.8552 46.0426 27.3392C47.3846 27.8012 48.4516 28.5162 49.2436 29.4842C50.0576 30.4522 50.4646 31.6402 50.4646 33.0482C50.4646 34.4342 50.2556 35.4792 49.8376 36.1832C49.4196 36.8872 48.8036 37.2392 47.9896 37.2392C47.4176 37.2392 46.9336 37.0632 46.5376 36.7112C46.1636 36.3592 45.9766 35.9412 45.9766 35.4572C45.9766 35.0392 46.0096 34.6542 46.0756 34.3022C46.1416 33.6422 46.1746 33.2242 46.1746 33.0482C46.1746 32.1242 45.7236 31.4202 44.8216 30.9362C43.9196 30.4522 42.7976 30.2102 41.4556 30.2102C39.5636 30.2102 38.1116 30.5622 37.0996 31.2662C36.1096 31.9482 35.6146 32.9162 35.6146 34.1702C35.6146 35.0062 35.8676 35.7212 36.3736 36.3152C36.9016 36.9092 37.5506 37.4042 38.3206 37.8002C39.0906 38.1962 40.1686 38.6692 41.5546 39.2192C43.2266 39.9012 44.5686 40.5172 45.5806 41.0672C46.5926 41.6172 47.4506 42.3652 48.1546 43.3112C48.8806 44.2572 49.2436 45.4232 49.2436 46.8092C49.2436 49.4052 48.2536 51.4072 46.2736 52.8152C44.3156 54.2012 41.6866 54.8942 38.3866 54.8942ZM56.1195 54.7952C54.7555 54.7952 53.6665 54.3002 52.8525 53.3102C52.0385 52.3202 51.6315 51.0222 51.6315 49.4162C51.6315 47.6562 52.0385 45.9952 52.8525 44.4332C53.6665 42.8492 54.7445 41.5842 56.0865 40.6382C57.4505 39.6702 58.8915 39.1862 60.4095 39.1862C60.8935 39.1862 61.2125 39.2852 61.3665 39.4832C61.5425 39.6592 61.6855 39.9892 61.7955 40.4732C62.2575 40.3852 62.7415 40.3412 63.2475 40.3412C64.3255 40.3412 64.8645 40.7262 64.8645 41.4962C64.8645 41.9582 64.6995 43.0582 64.3695 44.7962C63.8635 47.3262 63.6105 49.0862 63.6105 50.0762C63.6105 50.4062 63.6875 50.6702 63.8415 50.8682C64.0175 51.0662 64.2375 51.1652 64.5015 51.1652C64.9195 51.1652 65.4255 50.9012 66.0195 50.3732C66.6135 49.8232 67.4165 48.9432 68.4285 47.7332C68.6925 47.4252 68.9895 47.2712 69.3195 47.2712C69.6055 47.2712 69.8255 47.4032 69.9795 47.6672C70.1555 47.9312 70.2435 48.2942 70.2435 48.7562C70.2435 49.6362 70.0345 50.3182 69.6165 50.8022C68.7145 51.9242 67.7575 52.8702 66.7455 53.6402C65.7335 54.4102 64.7545 54.7952 63.8085 54.7952C63.0825 54.7952 62.4115 54.5532 61.7955 54.0692C61.2015 53.5632 60.7505 52.8812 60.4425 52.0232C59.2985 53.8712 57.8575 54.7952 56.1195 54.7952ZM57.3075 51.4622C57.7915 51.4622 58.2535 51.1762 58.6935 50.6042C59.1335 50.0322 59.4525 49.2732 59.6505 48.3272L60.8715 42.2552C59.9475 42.2772 59.0895 42.6292 58.2975 43.3112C57.5275 43.9712 56.9115 44.8512 56.4495 45.9512C55.9875 47.0512 55.7565 48.2172 55.7565 49.4492C55.7565 50.1312 55.8885 50.6372 56.1525 50.9672C56.4385 51.2972 56.8235 51.4622 57.3075 51.4622ZM69.9045 54.7952C69.0685 54.7952 68.4745 54.3552 68.1225 53.4752C67.7925 52.5952 67.6275 51.1872 67.6275 49.2512C67.6275 46.3912 68.0345 43.6742 68.8485 41.1002C69.0465 40.4622 69.3655 40.0002 69.8055 39.7142C70.2675 39.4062 70.9055 39.2522 71.7195 39.2522C72.1595 39.2522 72.4675 39.3072 72.6435 39.4172C72.8195 39.5272 72.9075 39.7362 72.9075 40.0442C72.9075 40.3962 72.7425 41.1882 72.4125 42.4202C72.1925 43.3002 72.0165 44.0702 71.8845 44.7302C71.7525 45.3902 71.6425 46.2042 71.5545 47.1722C72.2805 45.2802 73.0945 43.7402 73.9965 42.5522C74.8985 41.3642 75.7785 40.5172 76.6365 40.0112C77.5165 39.5052 78.3195 39.2522 79.0455 39.2522C80.4755 39.2522 81.1905 39.9672 81.1905 41.3972C81.1905 42.2552 80.9485 43.8062 80.4645 46.0502C80.0465 47.9642 79.8375 49.2292 79.8375 49.8452C79.8375 50.7252 80.1565 51.1652 80.7945 51.1652C81.2345 51.1652 81.7515 50.9012 82.3455 50.3732C82.9615 49.8232 83.7755 48.9432 84.7875 47.7332C85.0515 47.4252 85.3485 47.2712 85.6785 47.2712C85.9645 47.2712 86.1845 47.4032 86.3385 47.6672C86.5145 47.9312 86.6025 48.2942 86.6025 48.7562C86.6025 49.6362 86.3935 50.3182 85.9755 50.8022C85.0295 51.9682 84.0065 52.9252 82.9065 53.6732C81.8285 54.4212 80.5965 54.7952 79.2105 54.7952C78.0885 54.7952 77.2415 54.4762 76.6695 53.8382C76.0975 53.1782 75.8115 52.2322 75.8115 51.0002C75.8115 50.3842 75.9655 49.2842 76.2735 47.7002C76.5595 46.3142 76.7025 45.3572 76.7025 44.8292C76.7025 44.4772 76.5815 44.3012 76.3395 44.3012C76.0535 44.3012 75.6465 44.6752 75.1185 45.4232C74.6125 46.1492 74.0845 47.1172 73.5345 48.3272C73.0065 49.5372 72.5775 50.8132 72.2475 52.1552C72.0055 53.1892 71.7195 53.8932 71.3895 54.2672C71.0815 54.6192 70.5865 54.7952 69.9045 54.7952ZM86.2756 54.7952C85.4396 54.7952 84.8456 54.3552 84.4936 53.4752C84.1636 52.5952 83.9986 51.1872 83.9986 49.2512C83.9986 46.3912 84.4056 43.6742 85.2196 41.1002C85.4176 40.4622 85.7366 40.0002 86.1766 39.7142C86.6386 39.4062 87.2766 39.2522 88.0906 39.2522C88.5306 39.2522 88.8386 39.3072 89.0146 39.4172C89.1906 39.5272 89.2786 39.7362 89.2786 40.0442C89.2786 40.3962 89.1136 41.1882 88.7836 42.4202C88.5636 43.3002 88.3876 44.0702 88.2556 44.7302C88.1236 45.3902 88.0136 46.2042 87.9256 47.1722C88.6516 45.2802 89.4656 43.7402 90.3676 42.5522C91.2696 41.3642 92.1496 40.5172 93.0076 40.0112C93.8876 39.5052 94.6906 39.2522 95.4166 39.2522C96.8466 39.2522 97.5616 39.9672 97.5616 41.3972C97.5616 42.2552 97.3196 43.8062 96.8356 46.0502C96.4176 47.9642 96.2086 49.2292 96.2086 49.8452C96.2086 50.7252 96.5276 51.1652 97.1656 51.1652C97.6056 51.1652 98.1226 50.9012 98.7166 50.3732C99.3326 49.8232 100.147 48.9432 101.159 47.7332C101.423 47.4252 101.72 47.2712 102.05 47.2712C102.336 47.2712 102.556 47.4032 102.71 47.6672C102.886 47.9312 102.974 48.2942 102.974 48.7562C102.974 49.6362 102.765 50.3182 102.347 50.8022C101.401 51.9682 100.378 52.9252 99.2776 53.6732C98.1996 54.4212 96.9676 54.7952 95.5816 54.7952C94.4596 54.7952 93.6126 54.4762 93.0406 53.8382C92.4686 53.1782 92.1826 52.2322 92.1826 51.0002C92.1826 50.3842 92.3366 49.2842 92.6446 47.7002C92.9306 46.3142 93.0736 45.3572 93.0736 44.8292C93.0736 44.4772 92.9526 44.3012 92.7106 44.3012C92.4246 44.3012 92.0176 44.6752 91.4896 45.4232C90.9836 46.1492 90.4556 47.1172 89.9056 48.3272C89.3776 49.5372 88.9486 50.8132 88.6186 52.1552C88.3766 53.1892 88.0906 53.8932 87.7606 54.2672C87.4526 54.6192 86.9576 54.7952 86.2756 54.7952ZM112.811 47.2712C113.097 47.2712 113.317 47.4032 113.471 47.6672C113.647 47.9312 113.735 48.2942 113.735 48.7562C113.735 49.6362 113.526 50.3182 113.108 50.8022C112.162 51.9682 111.128 52.9252 110.006 53.6732C108.906 54.4212 107.652 54.7952 106.244 54.7952C104.308 54.7952 102.867 53.9152 101.921 52.1552C100.997 50.3952 100.535 48.1182 100.535 45.3242C100.535 42.6402 100.876 39.5822 101.558 36.1502C102.262 32.7182 103.285 29.7702 104.627 27.3062C105.991 24.8422 107.608 23.6102 109.478 23.6102C110.534 23.6102 111.359 24.1052 111.953 25.0952C112.569 26.0632 112.877 27.4602 112.877 29.2862C112.877 31.9042 112.151 34.9402 110.699 38.3942C109.247 41.8482 107.278 45.2692 104.792 48.6572C104.946 49.5592 105.199 50.2082 105.551 50.6042C105.903 50.9782 106.365 51.1652 106.937 51.1652C107.839 51.1652 108.631 50.9122 109.313 50.4062C109.995 49.8782 110.864 48.9872 111.92 47.7332C112.184 47.4252 112.481 47.2712 112.811 47.2712ZM108.752 26.8772C108.246 26.8772 107.674 27.7902 107.036 29.6162C106.398 31.4422 105.837 33.7082 105.353 36.4142C104.869 39.1202 104.605 41.7162 104.561 44.2022C106.123 41.6282 107.366 39.0542 108.29 36.4802C109.214 33.8842 109.676 31.5192 109.676 29.3852C109.676 27.7132 109.368 26.8772 108.752 26.8772ZM114.804 54.7952C113.44 54.7952 112.351 54.3002 111.537 53.3102C110.723 52.3202 110.316 51.0222 110.316 49.4162C110.316 47.6562 110.723 45.9952 111.537 44.4332C112.351 42.8492 113.429 41.5842 114.771 40.6382C116.135 39.6702 117.576 39.1862 119.094 39.1862C119.578 39.1862 119.897 39.2852 120.051 39.4832C120.227 39.6592 120.37 39.9892 120.48 40.4732C120.942 40.3852 121.426 40.3412 121.932 40.3412C123.01 40.3412 123.549 40.7262 123.549 41.4962C123.549 41.9582 123.384 43.0582 123.054 44.7962C122.548 47.3262 122.295 49.0862 122.295 50.0762C122.295 50.4062 122.372 50.6702 122.526 50.8682C122.702 51.0662 122.922 51.1652 123.186 51.1652C123.604 51.1652 124.11 50.9012 124.704 50.3732C125.298 49.8232 126.101 48.9432 127.113 47.7332C127.377 47.4252 127.674 47.2712 128.004 47.2712C128.29 47.2712 128.51 47.4032 128.664 47.6672C128.84 47.9312 128.928 48.2942 128.928 48.7562C128.928 49.6362 128.719 50.3182 128.301 50.8022C127.399 51.9242 126.442 52.8702 125.43 53.6402C124.418 54.4102 123.439 54.7952 122.493 54.7952C121.767 54.7952 121.096 54.5532 120.48 54.0692C119.886 53.5632 119.435 52.8812 119.127 52.0232C117.983 53.8712 116.542 54.7952 114.804 54.7952ZM115.992 51.4622C116.476 51.4622 116.938 51.1762 117.378 50.6042C117.818 50.0322 118.137 49.2732 118.335 48.3272L119.556 42.2552C118.632 42.2772 117.774 42.6292 116.982 43.3112C116.212 43.9712 115.596 44.8512 115.134 45.9512C114.672 47.0512 114.441 48.2172 114.441 49.4492C114.441 50.1312 114.573 50.6372 114.837 50.9672C115.123 51.2972 115.508 51.4622 115.992 51.4622ZM151.186 44.5982C151.252 44.5762 151.362 44.5652 151.516 44.5652C151.846 44.5652 152.099 44.6752 152.275 44.8952C152.451 45.1152 152.539 45.4122 152.539 45.7862C152.539 46.4682 152.407 47.0072 152.143 47.4032C151.879 47.7772 151.483 48.0522 150.955 48.2282C149.943 48.5582 148.865 48.7232 147.721 48.7232C146.753 48.7232 145.84 48.5912 144.982 48.3272C144.344 49.3612 143.64 50.4282 142.87 51.5282C141.99 52.7822 141.231 53.6402 140.593 54.1022C139.977 54.5642 139.273 54.7952 138.481 54.7952C137.601 54.7952 136.93 54.4542 136.468 53.7722C136.028 53.0902 135.753 51.9682 135.643 50.4062L135.478 47.9972C134.796 49.8452 134.18 51.2532 133.63 52.2212C133.102 53.1892 132.563 53.8602 132.013 54.2342C131.485 54.6082 130.858 54.7952 130.132 54.7952C129.23 54.7952 128.515 54.4432 127.987 53.7392C127.481 53.0352 127.162 51.9242 127.03 50.4062C126.766 47.3262 126.634 44.6312 126.634 42.3212V41.1662C126.656 40.4402 126.854 39.9342 127.228 39.6482C127.602 39.3622 128.163 39.2192 128.911 39.2192C129.483 39.2192 129.901 39.3512 130.165 39.6152C130.451 39.8572 130.594 40.2752 130.594 40.8692C130.594 43.3992 130.748 46.6882 131.056 50.7362C132.552 47.5902 133.927 44.3122 135.181 40.9022C135.423 40.2422 135.709 39.8022 136.039 39.5822C136.391 39.3402 136.809 39.2192 137.293 39.2192C137.887 39.2192 138.294 39.3402 138.514 39.5822C138.756 39.8242 138.877 40.2532 138.877 40.8692C138.877 43.3992 139.031 46.6882 139.339 50.7362C140.659 48.7782 141.649 47.2162 142.309 46.0502C141.979 45.4122 141.814 44.6532 141.814 43.7732C141.814 43.0252 141.979 42.2992 142.309 41.5952C142.639 40.8912 143.09 40.3192 143.662 39.8792C144.234 39.4392 144.883 39.2192 145.609 39.2192C146.247 39.2192 146.764 39.4502 147.16 39.9122C147.556 40.3522 147.754 41.0012 147.754 41.8592C147.754 42.8492 147.49 43.9822 146.962 45.2582C147.798 45.2142 148.909 45.0492 150.295 44.7632L151.186 44.5982ZM166.505 44.4992C166.791 44.4992 167.011 44.6422 167.165 44.9282C167.319 45.2142 167.396 45.5772 167.396 46.0172C167.396 47.0732 167.077 47.7002 166.439 47.8982C165.119 48.3602 163.667 48.6242 162.083 48.6902C161.665 50.5382 160.84 52.0232 159.608 53.1452C158.376 54.2452 156.979 54.7952 155.417 54.7952C154.097 54.7952 152.964 54.4762 152.018 53.8382C151.094 53.2002 150.39 52.3532 149.906 51.2972C149.422 50.2412 149.18 49.0972 149.18 47.8652C149.18 46.1932 149.499 44.7082 150.137 43.4102C150.775 42.0902 151.655 41.0672 152.777 40.3412C153.899 39.5932 155.142 39.2192 156.506 39.2192C158.178 39.2192 159.52 39.8022 160.532 40.9682C161.566 42.1122 162.171 43.5312 162.347 45.2252C163.381 45.1592 164.613 44.9392 166.043 44.5652C166.219 44.5212 166.373 44.4992 166.505 44.4992ZM155.681 51.2972C156.385 51.2972 156.99 51.0112 157.496 50.4392C158.024 49.8672 158.376 49.0422 158.552 47.9642C157.87 47.5022 157.342 46.8972 156.968 46.1492C156.616 45.4012 156.44 44.6092 156.44 43.7732C156.44 43.4212 156.473 43.0692 156.539 42.7172H156.374C155.494 42.7172 154.757 43.1462 154.163 44.0042C153.591 44.8402 153.305 46.0282 153.305 47.5682C153.305 48.7782 153.536 49.7022 153.998 50.3402C154.482 50.9782 155.043 51.2972 155.681 51.2972ZM166.906 54.7952C166.07 54.7952 165.476 54.3552 165.124 53.4752C164.794 52.5952 164.629 51.1872 164.629 49.2512C164.629 46.3912 165.036 43.6742 165.85 41.1002C166.048 40.4622 166.367 40.0002 166.807 39.7142C167.269 39.4062 167.907 39.2522 168.721 39.2522C169.161 39.2522 169.469 39.3072 169.645 39.4172C169.821 39.5272 169.909 39.7362 169.909 40.0442C169.909 40.3962 169.744 41.1882 169.414 42.4202C169.194 43.3002 169.018 44.0702 168.886 44.7302C168.754 45.3902 168.644 46.2042 168.556 47.1722C169.282 45.2802 170.096 43.7402 170.998 42.5522C171.9 41.3642 172.78 40.5172 173.638 40.0112C174.518 39.5052 175.321 39.2522 176.047 39.2522C176.751 39.2522 177.279 39.4392 177.631 39.8132C178.005 40.1652 178.192 40.6932 178.192 41.3972C178.192 41.9692 178.071 43.0472 177.829 44.6312C177.609 45.9732 177.433 47.2492 177.301 48.4592C177.169 49.6472 177.103 50.9782 177.103 52.4522C177.103 53.2882 176.927 53.8932 176.575 54.2672C176.245 54.6192 175.695 54.7952 174.925 54.7952C174.199 54.7952 173.671 54.6082 173.341 54.2342C173.011 53.8602 172.846 53.2992 172.846 52.5512C172.846 51.6712 173 50.2192 173.308 48.1952C173.572 46.4352 173.704 45.3132 173.704 44.8292C173.704 44.4772 173.583 44.3012 173.341 44.3012C173.055 44.3012 172.648 44.6752 172.12 45.4232C171.614 46.1492 171.086 47.1172 170.536 48.3272C170.008 49.5372 169.579 50.8132 169.249 52.1552C169.007 53.1892 168.721 53.8932 168.391 54.2672C168.083 54.6192 167.588 54.7952 166.906 54.7952Z" fill="url(#paint0_linear_52_2)"/>
<defs>
<linearGradient id="paint0_linear_52_2" x1="36.958" y1="11.6301" x2="180.414" y2="66.9137" gradientUnits="userSpaceOnUse">
<stop stop-color="white"/>
<stop offset="0.922471" stop-color="white"/>
</linearGradient>
</defs>
</svg>
