<svg width="180" height="70" viewBox="0 0 180 70" fill="none" xmlns="http://www.w3.org/2000/svg">
<g filter="url(#filter0_i_37_55)">
<path fill-rule="evenodd" clip-rule="evenodd" d="M18.6485 49.8833C18.7733 48.3198 18.8211 46.6901 18.8721 44.9548C19.0031 40.4981 19.1545 35.3446 20.6817 28.8248C23.1767 18.1735 34.8935 13.9706 43.8811 12.9974C41.5625 10.8335 38.7491 9.12575 35.539 8.06851C23.6858 4.16468 10.9122 10.6089 7.00834 22.4622C3.41861 33.3617 8.57874 45.0394 18.6485 49.8833Z" fill="#F2F2F2"/>
</g>
<path d="M38.3866 54.5711C35.4606 54.5711 33.1176 54.0211 31.3576 52.9211C29.5976 51.7991 28.7176 50.0941 28.7176 47.8061C28.7176 46.5961 28.9266 45.6721 29.3446 45.0341C29.7626 44.3961 30.3786 44.0771 31.1926 44.0771C31.7866 44.0771 32.2706 44.2311 32.6446 44.5391C33.0186 44.8471 33.2056 45.2431 33.2056 45.7271C33.2056 46.1671 33.1726 46.5521 33.1066 46.8821C33.1066 46.9701 33.0846 47.1241 33.0406 47.3441C33.0186 47.5641 33.0076 47.7951 33.0076 48.0371C33.0076 49.0271 33.5026 49.7641 34.4926 50.2481C35.5046 50.7321 36.9126 50.9741 38.7166 50.9741C40.5866 50.9741 42.0496 50.6441 43.1056 49.9841C44.1616 49.3021 44.6896 48.3561 44.6896 47.1461C44.6896 46.3981 44.4476 45.7601 43.9636 45.2321C43.4796 44.6821 42.8746 44.2311 42.1486 43.8791C41.4226 43.5051 40.3996 43.0541 39.0796 42.5261C37.3856 41.8661 35.9996 41.2391 34.9216 40.6451C33.8656 40.0511 32.9526 39.2481 32.1826 38.2361C31.4346 37.2021 31.0606 35.9261 31.0606 34.4081C31.0606 32.8241 31.4786 31.4161 32.3146 30.1841C33.1726 28.9521 34.3936 27.9951 35.9776 27.3131C37.5836 26.6311 39.4646 26.2901 41.6206 26.2901C43.2266 26.2901 44.7006 26.5321 46.0426 27.0161C47.3846 27.4781 48.4516 28.1931 49.2436 29.1611C50.0576 30.1291 50.4646 31.3171 50.4646 32.7251C50.4646 34.1111 50.2556 35.1561 49.8376 35.8601C49.4196 36.5641 48.8036 36.9161 47.9896 36.9161C47.4176 36.9161 46.9336 36.7401 46.5376 36.3881C46.1636 36.0361 45.9766 35.6181 45.9766 35.1341C45.9766 34.7161 46.0096 34.3311 46.0756 33.9791C46.1416 33.3191 46.1746 32.9011 46.1746 32.7251C46.1746 31.8011 45.7236 31.0971 44.8216 30.6131C43.9196 30.1291 42.7976 29.8871 41.4556 29.8871C39.5636 29.8871 38.1116 30.2391 37.0996 30.9431C36.1096 31.6251 35.6146 32.5931 35.6146 33.8471C35.6146 34.6831 35.8676 35.3981 36.3736 35.9921C36.9016 36.5861 37.5506 37.0811 38.3206 37.4771C39.0906 37.8731 40.1686 38.3461 41.5546 38.8961C43.2266 39.5781 44.5686 40.1941 45.5806 40.7441C46.5926 41.2941 47.4506 42.0421 48.1546 42.9881C48.8806 43.9341 49.2436 45.1001 49.2436 46.4861C49.2436 49.0821 48.2536 51.0841 46.2736 52.4921C44.3156 53.8781 41.6866 54.5711 38.3866 54.5711ZM56.1195 54.4721C54.7555 54.4721 53.6665 53.9771 52.8525 52.9871C52.0385 51.9971 51.6315 50.6991 51.6315 49.0931C51.6315 47.3331 52.0385 45.6721 52.8525 44.1101C53.6665 42.5261 54.7445 41.2611 56.0865 40.3151C57.4505 39.3471 58.8915 38.8631 60.4095 38.8631C60.8935 38.8631 61.2125 38.9621 61.3665 39.1601C61.5425 39.3361 61.6855 39.6661 61.7955 40.1501C62.2575 40.0621 62.7415 40.0181 63.2475 40.0181C64.3255 40.0181 64.8645 40.4031 64.8645 41.1731C64.8645 41.6351 64.6995 42.7351 64.3695 44.4731C63.8635 47.0031 63.6105 48.7631 63.6105 49.7531C63.6105 50.0831 63.6875 50.3471 63.8415 50.5451C64.0175 50.7431 64.2375 50.8421 64.5015 50.8421C64.9195 50.8421 65.4255 50.5781 66.0195 50.0501C66.6135 49.5001 67.4165 48.6201 68.4285 47.4101C68.6925 47.1021 68.9895 46.9481 69.3195 46.9481C69.6055 46.9481 69.8255 47.0801 69.9795 47.3441C70.1555 47.6081 70.2435 47.9711 70.2435 48.4331C70.2435 49.3131 70.0345 49.9951 69.6165 50.4791C68.7145 51.6011 67.7575 52.5471 66.7455 53.3171C65.7335 54.0871 64.7545 54.4721 63.8085 54.4721C63.0825 54.4721 62.4115 54.2301 61.7955 53.7461C61.2015 53.2401 60.7505 52.5581 60.4425 51.7001C59.2985 53.5481 57.8575 54.4721 56.1195 54.4721ZM57.3075 51.1391C57.7915 51.1391 58.2535 50.8531 58.6935 50.2811C59.1335 49.7091 59.4525 48.9501 59.6505 48.0041L60.8715 41.9321C59.9475 41.9541 59.0895 42.3061 58.2975 42.9881C57.5275 43.6481 56.9115 44.5281 56.4495 45.6281C55.9875 46.7281 55.7565 47.8941 55.7565 49.1261C55.7565 49.8081 55.8885 50.3141 56.1525 50.6441C56.4385 50.9741 56.8235 51.1391 57.3075 51.1391ZM69.9045 54.4721C69.0685 54.4721 68.4745 54.0321 68.1225 53.1521C67.7925 52.2721 67.6275 50.8641 67.6275 48.9281C67.6275 46.0681 68.0345 43.3511 68.8485 40.7771C69.0465 40.1391 69.3655 39.6771 69.8055 39.3911C70.2675 39.0831 70.9055 38.9291 71.7195 38.9291C72.1595 38.9291 72.4675 38.9841 72.6435 39.0941C72.8195 39.2041 72.9075 39.4131 72.9075 39.7211C72.9075 40.0731 72.7425 40.8651 72.4125 42.0971C72.1925 42.9771 72.0165 43.7471 71.8845 44.4071C71.7525 45.0671 71.6425 45.8811 71.5545 46.8491C72.2805 44.9571 73.0945 43.4171 73.9965 42.2291C74.8985 41.0411 75.7785 40.1941 76.6365 39.6881C77.5165 39.1821 78.3195 38.9291 79.0455 38.9291C80.4755 38.9291 81.1905 39.6441 81.1905 41.0741C81.1905 41.9321 80.9485 43.4831 80.4645 45.7271C80.0465 47.6411 79.8375 48.9061 79.8375 49.5221C79.8375 50.4021 80.1565 50.8421 80.7945 50.8421C81.2345 50.8421 81.7515 50.5781 82.3455 50.0501C82.9615 49.5001 83.7755 48.6201 84.7875 47.4101C85.0515 47.1021 85.3485 46.9481 85.6785 46.9481C85.9645 46.9481 86.1845 47.0801 86.3385 47.3441C86.5145 47.6081 86.6025 47.9711 86.6025 48.4331C86.6025 49.3131 86.3935 49.9951 85.9755 50.4791C85.0295 51.6451 84.0065 52.6021 82.9065 53.3501C81.8285 54.0981 80.5965 54.4721 79.2105 54.4721C78.0885 54.4721 77.2415 54.1531 76.6695 53.5151C76.0975 52.8551 75.8115 51.9091 75.8115 50.6771C75.8115 50.0611 75.9655 48.9611 76.2735 47.3771C76.5595 45.9911 76.7025 45.0341 76.7025 44.5061C76.7025 44.1541 76.5815 43.9781 76.3395 43.9781C76.0535 43.9781 75.6465 44.3521 75.1185 45.1001C74.6125 45.8261 74.0845 46.7941 73.5345 48.0041C73.0065 49.2141 72.5775 50.4901 72.2475 51.8321C72.0055 52.8661 71.7195 53.5701 71.3895 53.9441C71.0815 54.2961 70.5865 54.4721 69.9045 54.4721ZM86.2756 54.4721C85.4396 54.4721 84.8456 54.0321 84.4936 53.1521C84.1636 52.2721 83.9986 50.8641 83.9986 48.9281C83.9986 46.0681 84.4056 43.3511 85.2196 40.7771C85.4176 40.1391 85.7366 39.6771 86.1766 39.3911C86.6386 39.0831 87.2766 38.9291 88.0906 38.9291C88.5306 38.9291 88.8386 38.9841 89.0146 39.0941C89.1906 39.2041 89.2786 39.4131 89.2786 39.7211C89.2786 40.0731 89.1136 40.8651 88.7836 42.0971C88.5636 42.9771 88.3876 43.7471 88.2556 44.4071C88.1236 45.0671 88.0136 45.8811 87.9256 46.8491C88.6516 44.9571 89.4656 43.4171 90.3676 42.2291C91.2696 41.0411 92.1496 40.1941 93.0076 39.6881C93.8876 39.1821 94.6906 38.9291 95.4166 38.9291C96.8466 38.9291 97.5616 39.6441 97.5616 41.0741C97.5616 41.9321 97.3196 43.4831 96.8356 45.7271C96.4176 47.6411 96.2086 48.9061 96.2086 49.5221C96.2086 50.4021 96.5276 50.8421 97.1656 50.8421C97.6056 50.8421 98.1226 50.5781 98.7166 50.0501C99.3326 49.5001 100.147 48.6201 101.159 47.4101C101.423 47.1021 101.72 46.9481 102.05 46.9481C102.336 46.9481 102.556 47.0801 102.71 47.3441C102.886 47.6081 102.974 47.9711 102.974 48.4331C102.974 49.3131 102.765 49.9951 102.347 50.4791C101.401 51.6451 100.378 52.6021 99.2776 53.3501C98.1996 54.0981 96.9676 54.4721 95.5816 54.4721C94.4596 54.4721 93.6126 54.1531 93.0406 53.5151C92.4686 52.8551 92.1826 51.9091 92.1826 50.6771C92.1826 50.0611 92.3366 48.9611 92.6446 47.3771C92.9306 45.9911 93.0736 45.0341 93.0736 44.5061C93.0736 44.1541 92.9526 43.9781 92.7106 43.9781C92.4246 43.9781 92.0176 44.3521 91.4896 45.1001C90.9836 45.8261 90.4556 46.7941 89.9056 48.0041C89.3776 49.2141 88.9486 50.4901 88.6186 51.8321C88.3766 52.8661 88.0906 53.5701 87.7606 53.9441C87.4526 54.2961 86.9576 54.4721 86.2756 54.4721ZM112.811 46.9481C113.097 46.9481 113.317 47.0801 113.471 47.3441C113.647 47.6081 113.735 47.9711 113.735 48.4331C113.735 49.3131 113.526 49.9951 113.108 50.4791C112.162 51.6451 111.128 52.6021 110.006 53.3501C108.906 54.0981 107.652 54.4721 106.244 54.4721C104.308 54.4721 102.867 53.5921 101.921 51.8321C100.997 50.0721 100.535 47.7951 100.535 45.0011C100.535 42.3171 100.876 39.2591 101.558 35.8271C102.262 32.3951 103.285 29.4471 104.627 26.9831C105.991 24.5191 107.608 23.2871 109.478 23.2871C110.534 23.2871 111.359 23.7821 111.953 24.7721C112.569 25.7401 112.877 27.1371 112.877 28.9631C112.877 31.5811 112.151 34.6171 110.699 38.0711C109.247 41.5251 107.278 44.9461 104.792 48.3341C104.946 49.2361 105.199 49.8851 105.551 50.2811C105.903 50.6551 106.365 50.8421 106.937 50.8421C107.839 50.8421 108.631 50.5891 109.313 50.0831C109.995 49.5551 110.864 48.6641 111.92 47.4101C112.184 47.1021 112.481 46.9481 112.811 46.9481ZM108.752 26.5541C108.246 26.5541 107.674 27.4671 107.036 29.2931C106.398 31.1191 105.837 33.3851 105.353 36.0911C104.869 38.7971 104.605 41.3931 104.561 43.8791C106.123 41.3051 107.366 38.7311 108.29 36.1571C109.214 33.5611 109.676 31.1961 109.676 29.0621C109.676 27.3901 109.368 26.5541 108.752 26.5541ZM114.804 54.4721C113.44 54.4721 112.351 53.9771 111.537 52.9871C110.723 51.9971 110.316 50.6991 110.316 49.0931C110.316 47.3331 110.723 45.6721 111.537 44.1101C112.351 42.5261 113.429 41.2611 114.771 40.3151C116.135 39.3471 117.576 38.8631 119.094 38.8631C119.578 38.8631 119.897 38.9621 120.051 39.1601C120.227 39.3361 120.37 39.6661 120.48 40.1501C120.942 40.0621 121.426 40.0181 121.932 40.0181C123.01 40.0181 123.549 40.4031 123.549 41.1731C123.549 41.6351 123.384 42.7351 123.054 44.4731C122.548 47.0031 122.295 48.7631 122.295 49.7531C122.295 50.0831 122.372 50.3471 122.526 50.5451C122.702 50.7431 122.922 50.8421 123.186 50.8421C123.604 50.8421 124.11 50.5781 124.704 50.0501C125.298 49.5001 126.101 48.6201 127.113 47.4101C127.377 47.1021 127.674 46.9481 128.004 46.9481C128.29 46.9481 128.51 47.0801 128.664 47.3441C128.84 47.6081 128.928 47.9711 128.928 48.4331C128.928 49.3131 128.719 49.9951 128.301 50.4791C127.399 51.6011 126.442 52.5471 125.43 53.3171C124.418 54.0871 123.439 54.4721 122.493 54.4721C121.767 54.4721 121.096 54.2301 120.48 53.7461C119.886 53.2401 119.435 52.5581 119.127 51.7001C117.983 53.5481 116.542 54.4721 114.804 54.4721ZM115.992 51.1391C116.476 51.1391 116.938 50.8531 117.378 50.2811C117.818 49.7091 118.137 48.9501 118.335 48.0041L119.556 41.9321C118.632 41.9541 117.774 42.3061 116.982 42.9881C116.212 43.6481 115.596 44.5281 115.134 45.6281C114.672 46.7281 114.441 47.8941 114.441 49.1261C114.441 49.8081 114.573 50.3141 114.837 50.6441C115.123 50.9741 115.508 51.1391 115.992 51.1391ZM151.186 44.2751C151.252 44.2531 151.362 44.2421 151.516 44.2421C151.846 44.2421 152.099 44.3521 152.275 44.5721C152.451 44.7921 152.539 45.0891 152.539 45.4631C152.539 46.1451 152.407 46.6841 152.143 47.0801C151.879 47.4541 151.483 47.7291 150.955 47.9051C149.943 48.2351 148.865 48.4001 147.721 48.4001C146.753 48.4001 145.84 48.2681 144.982 48.0041C144.344 49.0381 143.64 50.1051 142.87 51.2051C141.99 52.4591 141.231 53.3171 140.593 53.7791C139.977 54.2411 139.273 54.4721 138.481 54.4721C137.601 54.4721 136.93 54.1311 136.468 53.4491C136.028 52.7671 135.753 51.6451 135.643 50.0831L135.478 47.6741C134.796 49.5221 134.18 50.9301 133.63 51.8981C133.102 52.8661 132.563 53.5371 132.013 53.9111C131.485 54.2851 130.858 54.4721 130.132 54.4721C129.23 54.4721 128.515 54.1201 127.987 53.4161C127.481 52.7121 127.162 51.6011 127.03 50.0831C126.766 47.0031 126.634 44.3081 126.634 41.9981V40.8431C126.656 40.1171 126.854 39.6111 127.228 39.3251C127.602 39.0391 128.163 38.8961 128.911 38.8961C129.483 38.8961 129.901 39.0281 130.165 39.2921C130.451 39.5341 130.594 39.9521 130.594 40.5461C130.594 43.0761 130.748 46.3651 131.056 50.4131C132.552 47.2671 133.927 43.9891 135.181 40.5791C135.423 39.9191 135.709 39.4791 136.039 39.2591C136.391 39.0171 136.809 38.8961 137.293 38.8961C137.887 38.8961 138.294 39.0171 138.514 39.2591C138.756 39.5011 138.877 39.9301 138.877 40.5461C138.877 43.0761 139.031 46.3651 139.339 50.4131C140.659 48.4551 141.649 46.8931 142.309 45.7271C141.979 45.0891 141.814 44.3301 141.814 43.4501C141.814 42.7021 141.979 41.9761 142.309 41.2721C142.639 40.5681 143.09 39.9961 143.662 39.5561C144.234 39.1161 144.883 38.8961 145.609 38.8961C146.247 38.8961 146.764 39.1271 147.16 39.5891C147.556 40.0291 147.754 40.6781 147.754 41.5361C147.754 42.5261 147.49 43.6591 146.962 44.9351C147.798 44.8911 148.909 44.7261 150.295 44.4401L151.186 44.2751ZM166.505 44.1761C166.791 44.1761 167.011 44.3191 167.165 44.6051C167.319 44.8911 167.396 45.2541 167.396 45.6941C167.396 46.7501 167.077 47.3771 166.439 47.5751C165.119 48.0371 163.667 48.3011 162.083 48.3671C161.665 50.2151 160.84 51.7001 159.608 52.8221C158.376 53.9221 156.979 54.4721 155.417 54.4721C154.097 54.4721 152.964 54.1531 152.018 53.5151C151.094 52.8771 150.39 52.0301 149.906 50.9741C149.422 49.9181 149.18 48.7741 149.18 47.5421C149.18 45.8701 149.499 44.3851 150.137 43.0871C150.775 41.7671 151.655 40.7441 152.777 40.0181C153.899 39.2701 155.142 38.8961 156.506 38.8961C158.178 38.8961 159.52 39.4791 160.532 40.6451C161.566 41.7891 162.171 43.2081 162.347 44.9021C163.381 44.8361 164.613 44.6161 166.043 44.2421C166.219 44.1981 166.373 44.1761 166.505 44.1761ZM155.681 50.9741C156.385 50.9741 156.99 50.6881 157.496 50.1161C158.024 49.5441 158.376 48.7191 158.552 47.6411C157.87 47.1791 157.342 46.5741 156.968 45.8261C156.616 45.0781 156.44 44.2861 156.44 43.4501C156.44 43.0981 156.473 42.7461 156.539 42.3941H156.374C155.494 42.3941 154.757 42.8231 154.163 43.6811C153.591 44.5171 153.305 45.7051 153.305 47.2451C153.305 48.4551 153.536 49.3791 153.998 50.0171C154.482 50.6551 155.043 50.9741 155.681 50.9741ZM166.906 54.4721C166.07 54.4721 165.476 54.0321 165.124 53.1521C164.794 52.2721 164.629 50.8641 164.629 48.9281C164.629 46.0681 165.036 43.3511 165.85 40.7771C166.048 40.1391 166.367 39.6771 166.807 39.3911C167.269 39.0831 167.907 38.9291 168.721 38.9291C169.161 38.9291 169.469 38.9841 169.645 39.0941C169.821 39.2041 169.909 39.4131 169.909 39.7211C169.909 40.0731 169.744 40.8651 169.414 42.0971C169.194 42.9771 169.018 43.7471 168.886 44.4071C168.754 45.0671 168.644 45.8811 168.556 46.8491C169.282 44.9571 170.096 43.4171 170.998 42.2291C171.9 41.0411 172.78 40.1941 173.638 39.6881C174.518 39.1821 175.321 38.9291 176.047 38.9291C176.751 38.9291 177.279 39.1161 177.631 39.4901C178.005 39.8421 178.192 40.3701 178.192 41.0741C178.192 41.6461 178.071 42.7241 177.829 44.3081C177.609 45.6501 177.433 46.9261 177.301 48.1361C177.169 49.3241 177.103 50.6551 177.103 52.1291C177.103 52.9651 176.927 53.5701 176.575 53.9441C176.245 54.2961 175.695 54.4721 174.925 54.4721C174.199 54.4721 173.671 54.2851 173.341 53.9111C173.011 53.5371 172.846 52.9761 172.846 52.2281C172.846 51.3481 173 49.8961 173.308 47.8721C173.572 46.1121 173.704 44.9901 173.704 44.5061C173.704 44.1541 173.583 43.9781 173.341 43.9781C173.055 43.9781 172.648 44.3521 172.12 45.1001C171.614 45.8261 171.086 46.7941 170.536 48.0041C170.008 49.2141 169.579 50.4901 169.249 51.8321C169.007 52.8661 168.721 53.5701 168.391 53.9441C168.083 54.2961 167.588 54.4721 166.906 54.4721Z" fill="url(#paint0_linear_37_55)"/>
<defs>
<filter id="filter0_i_37_55" x="5.86816" y="6.92834" width="41.0129" height="45.955" filterUnits="userSpaceOnUse" color-interpolation-filters="sRGB">
<feFlood flood-opacity="0" result="BackgroundImageFix"/>
<feBlend mode="normal" in="SourceGraphic" in2="BackgroundImageFix" result="shape"/>
<feColorMatrix in="SourceAlpha" type="matrix" values="0 0 0 0 0 0 0 0 0 0 0 0 0 0 0 0 0 0 127 0" result="hardAlpha"/>
<feOffset dx="3" dy="4"/>
<feGaussianBlur stdDeviation="1.5"/>
<feComposite in2="hardAlpha" operator="arithmetic" k2="-1" k3="1"/>
<feColorMatrix type="matrix" values="0 0 0 0 0.0408334 0 0 0 0 0.816667 0 0 0 0 0.68559 0 0 0 0.2 0"/>
<feBlend mode="normal" in2="shape" result="effect1_innerShadow_37_55"/>
</filter>
<linearGradient id="paint0_linear_37_55" x1="36.958" y1="11.3071" x2="179.346" y2="67.7472" gradientUnits="userSpaceOnUse">
<stop stop-color="#0BE6C1"/>
<stop offset="0.922471" stop-color="#43F4BF"/>
</linearGradient>
</defs>
</svg>
